<?xml version="1.0" encoding="UTF-8"?>
<svg id="_レイヤー_1" data-name="レイヤー_1" xmlns="http://www.w3.org/2000/svg" version="1.1" viewBox="0 0 200 201.11">
  <!-- Generator: Adobe Illustrator 29.6.1, SVG Export Plug-In . SVG Version: 2.1.1 Build 9)  -->
  <path d="M138.77,112.91c-2.05,1.16-3.12,3.5-2.69,5.81s.65,4.65.65,7.06c0,20.2-15.58,36.94-36.65,36.94s-36.37-16.74-36.37-36.94c0-2.35.21-4.65.61-6.88s-.66-4.62-2.7-5.78l-26.76-15.2c-2.96-1.68-6.77-.32-7.91,2.9-2.74,7.75-4.22,16.05-4.22,24.67,0,41.56,33.48,75.62,77.35,75.62s77.64-34.06,77.64-75.62c0-8.68-1.52-17.06-4.31-24.88-1.14-3.2-4.95-4.56-7.91-2.88l-26.73,15.18Z"/>
  <path d="M93.46,114.3L2.79,62.81c-3.73-2.12-3.73-7.48,0-9.6L93.46,1.73c4.06-2.3,9.03-2.3,13.08,0l90.66,51.48c3.73,2.12,3.73,7.48,0,9.6l-90.66,51.49c-4.06,2.3-9.03,2.3-13.08,0ZM66.11,62.81l28.44,16.15c3.38,1.92,7.52,1.92,10.9,0l28.44-16.15c3.73-2.12,3.73-7.48,0-9.6l-28.44-16.15c-3.38-1.92-7.52-1.92-10.9,0l-28.44,16.15c-3.73,2.12-3.73,7.48,0,9.6Z"/>
</svg>